<svg width="359" height="279" viewBox="0 0 359 279" fill="none" xmlns="http://www.w3.org/2000/svg">
<rect x="12" y="202" width="3" height="3" fill="white" fill-opacity="0.8"/>
<rect x="13.5017" y="201.379" width="3" height="3" transform="rotate(45.0471 13.5017 201.379)" fill="white" fill-opacity="0.8"/>
<rect x="360.82" y="154.998" width="3" height="3" transform="rotate(-148.358 360.82 154.998)" fill="white"/>
<rect x="359.216" y="154.739" width="3" height="3" transform="rotate(-103.311 359.216 154.739)" fill="white"/>
<rect x="80.6213" y="201.621" width="3" height="3" fill="white" fill-opacity="0.8"/>
<rect x="82.1231" y="201" width="3" height="3" transform="rotate(45.0471 82.1231 201)" fill="white" fill-opacity="0.8"/>
<rect x="302.201" y="119.321" width="3" height="3" transform="rotate(-148.358 302.201 119.321)" fill="white"/>
<rect x="300.597" y="119.062" width="3" height="3" transform="rotate(-103.311 300.597 119.062)" fill="white"/>
<rect x="15.8581" y="165.41" width="3" height="3" transform="rotate(-57.415 15.8581 165.41)" fill="white"/>
<rect x="16.1434" y="163.81" width="3" height="3" transform="rotate(-12.3679 16.1434 163.81)" fill="white"/>
<rect x="338.34" y="184.124" width="3" height="3" transform="rotate(154.227 338.34 184.124)" fill="white"/>
<rect x="337.258" y="185.337" width="3" height="3" transform="rotate(-160.726 337.258 185.337)" fill="white"/>
<rect x="149.243" y="201.243" width="3" height="3" fill="white" fill-opacity="0.8"/>
<rect x="150.744" y="200.621" width="3" height="3" transform="rotate(45.0471 150.744 200.621)" fill="white" fill-opacity="0.8"/>
<rect x="103.409" y="67.9828" width="3" height="3" transform="rotate(-148.358 103.409 67.9828)" fill="white"/>
<rect x="101.804" y="67.7239" width="3" height="3" transform="rotate(-103.311 101.804 67.7239)" fill="white"/>
<rect x="52.4951" y="107.386" width="3" height="3" transform="rotate(-57.415 52.4951 107.386)" fill="white"/>
<rect x="52.7803" y="105.786" width="3" height="3" transform="rotate(-12.3679 52.7803 105.786)" fill="white"/>
<rect x="276.71" y="214.303" width="3" height="3" transform="rotate(154.227 276.71 214.303)" fill="white"/>
<rect x="275.628" y="215.515" width="3" height="3" transform="rotate(-160.726 275.628 215.515)" fill="white"/>
<rect x="38.6213" y="208.621" width="3" height="3" fill="white" fill-opacity="0.8"/>
<rect x="40.1231" y="208" width="3" height="3" transform="rotate(45.0471 40.1231 208)" fill="white" fill-opacity="0.8"/>
<rect x="310.942" y="80.3563" width="3" height="3" transform="rotate(-148.358 310.942 80.3563)" fill="white"/>
<rect x="309.337" y="80.0974" width="3" height="3" transform="rotate(-103.311 309.337 80.0974)" fill="white"/>
<rect x="50.4487" y="191.476" width="1.56851" height="1.56851" transform="rotate(-57.415 50.4487 191.476)" fill="white" fill-opacity="0.5"/>
<rect x="50.5978" y="190.64" width="1.56851" height="1.56851" transform="rotate(-12.3679 50.5978 190.64)" fill="white" fill-opacity="0.5"/>
<rect x="325.836" y="139.531" width="3" height="3" transform="rotate(154.227 325.836 139.531)" fill="white" fill-opacity="0.5"/>
<rect x="324.753" y="140.744" width="3" height="3" transform="rotate(-160.726 324.753 140.744)" fill="white" fill-opacity="0.5"/>
<rect x="15.455" y="257.455" width="2.19672" height="2.19672" fill="white"/>
<rect x="16.5546" y="257" width="2.19672" height="2.19672" transform="rotate(45.0471 16.5546 257)" fill="white"/>
<rect x="185.864" y="115.303" width="3" height="3" transform="rotate(-34.6894 185.864 115.303)" fill="white"/>
<rect x="186.746" y="113.938" width="3" height="3" transform="rotate(10.3577 186.746 113.938)" fill="white"/>
<rect x="167.32" y="137.596" width="3" height="3" transform="rotate(176.952 167.32 137.596)" fill="white"/>
<rect x="165.853" y="138.296" width="3" height="3" transform="rotate(-138.001 165.853 138.296)" fill="white"/>
<rect x="217.864" y="200.864" width="3" height="3" fill="white"/>
<rect x="219.366" y="200.243" width="3" height="3" transform="rotate(45.0471 219.366 200.243)" fill="white"/>
<rect x="184.963" y="47.967" width="3" height="3" transform="rotate(-148.358 184.963 47.967)" fill="white"/>
<rect x="183.359" y="47.7081" width="3" height="3" transform="rotate(-103.311 183.359 47.7081)" fill="white"/>
<rect x="137.621" y="237.621" width="3" height="3" fill="white"/>
<rect x="139.123" y="237" width="3" height="3" transform="rotate(45.0471 139.123 237)" fill="white"/>
<rect x="252.323" y="44.6794" width="3" height="3" transform="rotate(-148.358 252.323 44.6794)" fill="white"/>
<rect x="250.718" y="44.4206" width="3" height="3" transform="rotate(-103.311 250.718 44.4206)" fill="white"/>
<rect x="203.293" y="186.293" width="1.41421" height="1.41421" fill="white"/>
<rect x="204.001" y="186" width="1.41421" height="1.41421" transform="rotate(45.0471 204.001 186)" fill="white"/>
<rect x="189.724" y="68.0161" width="1.41421" height="1.41421" transform="rotate(-148.358 189.724 68.0161)" fill="white"/>
<rect x="188.968" y="67.8941" width="1.41421" height="1.41421" transform="rotate(-103.311 188.968 67.8941)" fill="white"/>
<rect x="244.672" y="133.914" width="1.41421" height="1.41421" fill="white"/>
<rect x="245.379" y="133.621" width="1.41421" height="1.41421" transform="rotate(45.0471 245.379 133.621)" fill="white"/>
<rect x="127.018" y="90.9008" width="1.41421" height="1.41421" transform="rotate(-148.358 127.018 90.9008)" fill="white"/>
<rect x="126.262" y="90.7788" width="1.41421" height="1.41421" transform="rotate(-103.311 126.262 90.7788)" fill="white"/>
<rect x="286.05" y="81.5356" width="1.41421" height="1.41421" fill="#9BBBFA"/>
<rect x="286.758" y="81.2427" width="1.41421" height="1.41421" transform="rotate(45.0471 286.758 81.2427)" fill="#9BBBFA"/>
<rect x="105.293" y="244.293" width="1.41421" height="1.41421" fill="#C1D9FF"/>
<rect x="106.001" y="244" width="1.41421" height="1.41421" transform="rotate(45.0471 106.001 244)" fill="#C1D9FF"/>
<rect x="64.3127" y="113.786" width="1.41421" height="1.41421" transform="rotate(-148.358 64.3127 113.786)" fill="white"/>
<rect x="63.5564" y="113.664" width="1.41421" height="1.41421" transform="rotate(-103.311 63.5564 113.664)" fill="white"/>
<rect x="327.429" y="29.1569" width="1.41421" height="1.41421" fill="white"/>
<rect x="328.137" y="28.864" width="1.41421" height="1.41421" transform="rotate(45.0471 328.137 28.864)" fill="white"/>
<rect x="1.60699" y="136.67" width="1.41421" height="1.41421" transform="rotate(-148.358 1.60699 136.67)" fill="#D7FCCD"/>
<rect x="0.850647" y="136.548" width="1.41421" height="1.41421" transform="rotate(-103.311 0.850647 136.548)" fill="#D7FCCD"/>
<rect x="9.29288" y="37.2929" width="1.41421" height="1.41421" fill="white"/>
<rect x="10.0008" y="37" width="1.41421" height="1.41421" transform="rotate(45.0471 10.0008 37)" fill="white"/>
<rect x="310.607" y="247.349" width="1.41421" height="1.41421" transform="rotate(-148.358 310.607 247.349)" fill="white"/>
<rect x="309.851" y="247.227" width="1.41421" height="1.41421" transform="rotate(-103.311 309.851 247.227)" fill="white"/>
<rect x="144.293" y="129.293" width="1.41421" height="1.41421" fill="white"/>
<rect x="145.001" y="129" width="1.41421" height="1.41421" transform="rotate(45.0471 145.001 129)" fill="white"/>
<rect x="71.2929" y="235.293" width="1.41421" height="1.41421" fill="white"/>
<rect x="72.0008" y="235" width="1.41421" height="1.41421" transform="rotate(45.0471 72.0008 235)" fill="white"/>
<rect x="210.051" y="147.495" width="1.41421" height="1.41421" transform="rotate(-148.358 210.051 147.495)" fill="white"/>
<rect x="209.294" y="147.373" width="1.41421" height="1.41421" transform="rotate(-103.311 209.294 147.373)" fill="white"/>
<rect x="279.293" y="221.293" width="1.41421" height="1.41421" fill="white" fill-opacity="0.4"/>
<rect x="280.001" y="221" width="1.41421" height="1.41421" transform="rotate(45.0471 280.001 221)" fill="white" fill-opacity="0.4"/>
<rect x="132.881" y="31.4688" width="1.41421" height="1.41421" transform="rotate(138.263 132.881 31.4688)" fill="white"/>
<rect x="132.548" y="32.1587" width="1.41421" height="1.41421" transform="rotate(-176.69 132.548 32.1587)" fill="white"/>
<rect x="289.146" y="212.146" width="0.707107" height="0.707107" fill="#F9B4FF"/>
<rect x="289.5" y="212" width="0.707107" height="0.707107" transform="rotate(45.0471 289.5 212)" fill="#F9B4FF"/>
<rect x="131.41" y="44.8419" width="1.41421" height="1.41421" transform="rotate(138.263 131.41 44.8419)" fill="white"/>
<rect x="131.077" y="45.5317" width="1.41421" height="1.41421" transform="rotate(-176.69 131.077 45.5317)" fill="white"/>
<rect x="203.607" y="223.349" width="1.41421" height="1.41421" transform="rotate(-148.358 203.607 223.349)" fill="#FFD6D6"/>
<rect x="202.851" y="223.227" width="1.41421" height="1.41421" transform="rotate(-103.311 202.851 223.227)" fill="#FFD6D6"/>
<rect x="106.364" y="276.879" width="1.75737" height="1.75737" fill="white"/>
<rect x="107.244" y="276.515" width="1.75737" height="1.75737" transform="rotate(45.0471 107.244 276.515)" fill="white"/>
<rect x="319.682" y="41.3919" width="3" height="3" transform="rotate(-148.358 319.682 41.3919)" fill="white"/>
<rect x="318.077" y="41.133" width="3" height="3" transform="rotate(-103.311 318.077 41.133)" fill="white"/>
<rect x="242.073" y="75.9375" width="3" height="3" transform="rotate(-34.6894 242.073 75.9375)" fill="white"/>
<rect x="242.954" y="74.572" width="3" height="3" transform="rotate(10.3577 242.954 74.572)" fill="white"/>
<rect x="98.8158" y="141.622" width="3" height="3" transform="rotate(176.952 98.8158 141.622)" fill="white"/>
<rect x="97.3492" y="142.323" width="3" height="3" transform="rotate(-138.001 97.3492 142.323)" fill="white"/>
<rect x="286.459" y="193.459" width="2.21751" height="2.21751" fill="white" fill-opacity="0.8"/>
<rect x="287.569" y="193" width="2.21751" height="2.21751" transform="rotate(45.0471 287.569 193)" fill="white" fill-opacity="0.8"/>
<rect x="171.409" y="27.9828" width="3" height="3" transform="rotate(-148.358 171.409 27.9828)" fill="white"/>
<rect x="169.804" y="27.7239" width="3" height="3" transform="rotate(-103.311 169.804 27.7239)" fill="white"/>
<rect x="230.864" y="238.621" width="3" height="3" fill="white"/>
<rect x="232.366" y="238" width="3" height="3" transform="rotate(45.0471 232.366 238)" fill="white"/>
<rect x="193.703" y="9.00256" width="3" height="3" transform="rotate(-148.358 193.703 9.00256)" fill="white"/>
<rect x="192.099" y="8.74371" width="3" height="3" transform="rotate(-103.311 192.099 8.74371)" fill="white"/>
<rect x="184.419" y="259.419" width="2.02512" height="2.02512" fill="white"/>
<rect x="185.433" y="259" width="2.02512" height="2.02512" transform="rotate(45.0471 185.433 259)" fill="white"/>
<rect x="261.063" y="5.715" width="3" height="3" transform="rotate(-148.358 261.063 5.715)" fill="white"/>
<rect x="259.458" y="5.45615" width="3" height="3" transform="rotate(-103.311 259.458 5.45615)" fill="white"/>
<rect x="298.281" y="36.5719" width="3" height="3" transform="rotate(-34.6894 298.281 36.5719)" fill="white"/>
<rect x="299.162" y="35.2063" width="3" height="3" transform="rotate(10.3577 299.162 35.2063)" fill="white"/>
<rect x="30.3117" y="145.649" width="3" height="3" transform="rotate(176.952 30.3117 145.649)" fill="white"/>
<rect x="28.8451" y="146.349" width="3" height="3" transform="rotate(-138.001 28.8451 146.349)" fill="white"/>
</svg>
