<svg width="47" height="47" viewBox="0 0 47 47" fill="none" xmlns="http://www.w3.org/2000/svg">
<path d="M38.1875 5.875H8.8125C8.03343 5.875 7.28626 6.18449 6.73537 6.73537C6.18449 7.28626 5.875 8.03343 5.875 8.8125V38.1875C5.875 38.9666 6.18449 39.7137 6.73537 40.2646C7.28626 40.8155 8.03343 41.125 8.8125 41.125H38.1875C38.9666 41.125 39.7137 40.8155 40.2646 40.2646C40.8155 39.7137 41.125 38.9666 41.125 38.1875V8.8125C41.125 8.03343 40.8155 7.28626 40.2646 6.73537C39.7137 6.18449 38.9666 5.875 38.1875 5.875ZM38.1875 38.1875H8.8125V8.8125H38.1875V38.1875ZM30.4141 18.6641L25.5764 23.5L30.4141 28.3359C30.5506 28.4723 30.6588 28.6343 30.7327 28.8126C30.8066 28.9909 30.8446 29.182 30.8446 29.375C30.8446 29.568 30.8066 29.7591 30.7327 29.9374C30.6588 30.1157 30.5506 30.2777 30.4141 30.4141C30.2777 30.5506 30.1157 30.6588 29.9374 30.7327C29.7591 30.8066 29.568 30.8446 29.375 30.8446C29.182 30.8446 28.9909 30.8066 28.8126 30.7327C28.6343 30.6588 28.4723 30.5506 28.3359 30.4141L23.5 25.5764L18.6641 30.4141C18.5277 30.5506 18.3657 30.6588 18.1874 30.7327C18.0091 30.8066 17.818 30.8446 17.625 30.8446C17.432 30.8446 17.2409 30.8066 17.0626 30.7327C16.8843 30.6588 16.7223 30.5506 16.5859 30.4141C16.4494 30.2777 16.3411 30.1157 16.2673 29.9374C16.1934 29.7591 16.1554 29.568 16.1554 29.375C16.1554 29.182 16.1934 28.9909 16.2673 28.8126C16.3411 28.6343 16.4494 28.4723 16.5859 28.3359L21.4236 23.5L16.5859 18.6641C16.3103 18.3885 16.1554 18.0148 16.1554 17.625C16.1554 17.2352 16.3103 16.8615 16.5859 16.5859C16.8615 16.3103 17.2352 16.1554 17.625 16.1554C18.0148 16.1554 18.3885 16.3103 18.6641 16.5859L23.5 21.4236L28.3359 16.5859C28.4723 16.4494 28.6343 16.3411 28.8126 16.2673C28.9909 16.1934 29.182 16.1554 29.375 16.1554C29.568 16.1554 29.7591 16.1934 29.9374 16.2673C30.1157 16.3411 30.2777 16.4494 30.4141 16.5859C30.5506 16.7223 30.6588 16.8843 30.7327 17.0626C30.8066 17.2409 30.8446 17.432 30.8446 17.625C30.8446 17.818 30.8066 18.0091 30.7327 18.1874C30.6588 18.3657 30.5506 18.5277 30.4141 18.6641Z" fill="white"/>
</svg>
